<svg width="121" height="22" viewBox="0 0 121 22" fill="none" xmlns="http://www.w3.org/2000/svg">
<path d="M7.65601 14.0786C7.78491 13.4165 7.42749 12.9038 6.58374 12.5405L5.14233 11.9429C3.12085 11.0347 2.15991 9.79834 2.25952 8.23389C2.30054 7.51904 2.54663 6.8833 2.9978 6.32666C3.44897 5.76416 4.073 5.32764 4.86987 5.01709C5.66675 4.70654 6.53687 4.55713 7.48022 4.56885C8.74585 4.59229 9.76245 4.96143 10.53 5.67627C11.3035 6.39111 11.6843 7.34912 11.6726 8.55029H8.68433C8.7019 8.05811 8.59644 7.66553 8.36792 7.37256C8.14526 7.07373 7.77612 6.91846 7.2605 6.90674C6.75659 6.89502 6.31128 7.01221 5.92456 7.2583C5.53784 7.50439 5.30933 7.83545 5.23901 8.25146C5.12769 8.8374 5.56128 9.31787 6.53979 9.69287C7.52417 10.0679 8.23901 10.3901 8.68433 10.6597C10.0847 11.4976 10.741 12.6284 10.6531 14.0522C10.6062 14.7905 10.3689 15.438 9.94116 15.9946C9.51343 16.5513 8.9187 16.9819 8.15698 17.2866C7.40112 17.5913 6.55151 17.7378 5.60815 17.7261C4.91675 17.7144 4.27515 17.606 3.68335 17.4009C3.09155 17.1958 2.58472 16.897 2.16284 16.5044C1.30737 15.7134 0.897217 14.6733 0.932373 13.3843L3.94702 13.3931C3.91187 14.0493 4.03784 14.5474 4.32495 14.8872C4.61206 15.2212 5.09546 15.3882 5.77515 15.3882C6.27905 15.3882 6.698 15.2739 7.03198 15.0454C7.37183 14.811 7.57983 14.4888 7.65601 14.0786ZM16.9373 5.66748L16.5242 8.03174H18.0447L17.6843 10.0884H16.1638L15.4255 14.4565C15.3845 14.7554 15.4021 14.981 15.4783 15.1333C15.5603 15.2856 15.7595 15.3677 16.0759 15.3794C16.199 15.3853 16.4509 15.3706 16.8318 15.3354L16.6208 17.48C16.1345 17.6382 15.616 17.7114 15.0652 17.6997C14.1687 17.688 13.4978 17.4243 13.0525 16.9087C12.6072 16.3931 12.4255 15.6929 12.5076 14.8081L13.281 10.0884H12.1033L12.4548 8.03174H13.6326L14.0457 5.66748H16.9373ZM22.9578 17.5415C22.8757 17.313 22.8347 17.0259 22.8347 16.6802C22.1843 17.395 21.408 17.7407 20.5056 17.7173C19.6794 17.7056 18.9939 17.4302 18.449 16.8911C17.9041 16.3521 17.6492 15.6987 17.6843 14.9312C17.7136 13.8999 18.1443 13.1089 18.9763 12.5581C19.8083 12.0015 20.9451 11.7231 22.3865 11.7231L23.3533 11.7407L23.4587 11.2046L23.4939 10.7388C23.4705 10.2056 23.2039 9.93018 22.6941 9.9126C22.0613 9.90088 21.6716 10.2495 21.5251 10.9585L18.6248 10.9673C18.6541 10.3286 18.8621 9.7749 19.2488 9.30615C19.6355 8.83154 20.1599 8.46826 20.822 8.21631C21.49 7.9585 22.199 7.83838 22.949 7.85596C23.6697 7.87354 24.2996 8.02588 24.8386 8.31299C25.3835 8.59424 25.7908 8.98975 26.0603 9.49951C26.3298 10.0034 26.4324 10.5864 26.3679 11.2485L25.656 15.7222L25.6121 16.2671C25.5886 16.7007 25.6443 17.0698 25.7791 17.3745L25.7703 17.5415H22.9578ZM21.3054 15.6255C21.8972 15.6489 22.4158 15.3882 22.8611 14.8433L23.1511 13.314L22.4041 13.3052C21.9412 13.3169 21.5427 13.4546 21.2087 13.7183C20.8748 13.9761 20.6785 14.3306 20.6199 14.7817C20.5906 15.022 20.6345 15.2212 20.7517 15.3794C20.8748 15.5317 21.0593 15.6138 21.3054 15.6255ZM32.3708 5.66748L31.9578 8.03174H33.4783L33.1179 10.0884H31.5974L30.8591 14.4565C30.8181 14.7554 30.8357 14.981 30.9119 15.1333C30.9939 15.2856 31.1931 15.3677 31.5095 15.3794C31.6326 15.3853 31.8845 15.3706 32.2654 15.3354L32.0544 17.48C31.5681 17.6382 31.0496 17.7114 30.4988 17.6997C29.6023 17.688 28.9314 17.4243 28.4861 16.9087C28.0408 16.3931 27.8591 15.6929 27.9412 14.8081L28.7146 10.0884H27.5369L27.8884 8.03174H29.0662L29.4792 5.66748H32.3708ZM38.3914 14.8169C38.4675 14.4302 38.1687 14.1401 37.4949 13.9468L36.8708 13.7886C35.8513 13.519 35.1042 13.1411 34.6296 12.6548C34.155 12.1685 33.9324 11.5913 33.9617 10.9233C33.991 10.0093 34.3953 9.26807 35.1746 8.69971C35.9597 8.12549 36.9148 7.84424 38.0398 7.85596C39.1589 7.86768 40.0642 8.15186 40.7556 8.7085C41.4529 9.26514 41.8074 10.0151 41.8191 10.9585L38.9363 10.9497C38.9597 10.1997 38.6287 9.82471 37.9431 9.82471C37.6501 9.82471 37.3777 9.9126 37.1257 10.0884C36.8738 10.2583 36.7244 10.4868 36.6775 10.7739C36.5779 11.2485 36.9968 11.5737 37.9343 11.7495C38.7488 11.9429 39.3787 12.1685 39.824 12.4263C40.2693 12.6782 40.6091 12.9917 40.8435 13.3667C41.0779 13.7417 41.1863 14.1929 41.1687 14.7202C41.1511 15.2944 40.9636 15.8071 40.6062 16.2583C40.2488 16.7095 39.7302 17.0698 39.0505 17.3394C38.3767 17.6089 37.6443 17.7349 36.8533 17.7173C36.1677 17.7114 35.5291 17.5679 34.9373 17.2866C34.3513 17.0054 33.8914 16.6245 33.5574 16.144C33.2292 15.6577 33.0593 15.1011 33.0476 14.4741L35.7371 14.4917C35.7488 15.3354 36.1707 15.7515 37.0027 15.7397C37.3601 15.7397 37.6648 15.6606 37.9167 15.5024C38.1687 15.3384 38.3269 15.1099 38.3914 14.8169ZM50.4939 12.5405H51.7507L51.3552 14.8257H50.0984L49.6238 17.5415H46.7322L47.2068 14.8257H42.4167L42.575 12.8745L48.8591 4.771V4.70947L51.8474 4.75342L50.4939 12.5405ZM45.4226 12.5229L47.6023 12.5405L48.3757 8.56787L45.4226 12.5229ZM52.3923 17.5415L54.6072 4.74463L58.6765 4.75342C60.282 4.75928 61.4802 5.06396 62.2712 5.66748C63.0623 6.271 63.4226 7.11768 63.3523 8.20752C63.2644 9.55518 62.5261 10.5103 61.1375 11.0728C61.6355 11.2485 62.0222 11.5679 62.2976 12.0308C62.5789 12.4878 62.699 13.0386 62.658 13.6831C62.5759 14.9194 62.0867 15.8716 61.1902 16.5396C60.2996 17.2075 59.0779 17.5415 57.5251 17.5415H52.3923ZM56.3474 12.1011L55.8113 15.1685L57.613 15.1772C58.1755 15.1772 58.6443 15.0396 59.0193 14.7642C59.3943 14.4829 59.6169 14.1108 59.6873 13.6479C59.8513 12.6694 59.4763 12.1567 58.5623 12.1099L56.3474 12.1011ZM56.6902 10.0796L58.1052 10.0884C59.4119 10.0591 60.1443 9.55811 60.3025 8.58545C60.4431 7.62451 59.9451 7.14111 58.8083 7.13525L57.2087 7.12646L56.6902 10.0796ZM68.9773 17.5415C68.8953 17.313 68.8542 17.0259 68.8542 16.6802C68.2039 17.395 67.4275 17.7407 66.5251 17.7173C65.699 17.7056 65.0134 17.4302 64.4685 16.8911C63.9236 16.3521 63.6687 15.6987 63.7039 14.9312C63.7332 13.8999 64.1638 13.1089 64.9958 12.5581C65.8279 12.0015 66.9646 11.7231 68.406 11.7231L69.3728 11.7407L69.4783 11.2046L69.5134 10.7388C69.49 10.2056 69.2234 9.93018 68.7136 9.9126C68.0808 9.90088 67.6912 10.2495 67.5447 10.9585L64.6443 10.9673C64.6736 10.3286 64.8816 9.7749 65.2683 9.30615C65.655 8.83154 66.1794 8.46826 66.8416 8.21631C67.5095 7.9585 68.2185 7.83838 68.9685 7.85596C69.6892 7.87354 70.3191 8.02588 70.8582 8.31299C71.4031 8.59424 71.8103 8.98975 72.0798 9.49951C72.3494 10.0034 72.4519 10.5864 72.3875 11.2485L71.6755 15.7222L71.6316 16.2671C71.6082 16.7007 71.6638 17.0698 71.7986 17.3745L71.7898 17.5415H68.9773ZM67.325 15.6255C67.9167 15.6489 68.4353 15.3882 68.8806 14.8433L69.1707 13.314L68.4236 13.3052C67.9607 13.3169 67.5623 13.4546 67.2283 13.7183C66.8943 13.9761 66.698 14.3306 66.6394 14.7817C66.6101 15.022 66.6541 15.2212 66.7712 15.3794C66.8943 15.5317 67.0789 15.6138 67.325 15.6255ZM76.0173 17.5415H73.1169L75.4548 4.0415H78.3552L76.0173 17.5415ZM80.9041 17.5415H78.0037L80.3416 4.0415H83.2419L80.9041 17.5415ZM87.4695 17.7173C86.6199 17.7114 85.8611 17.5122 85.1931 17.1196C84.531 16.7212 84.03 16.1704 83.6902 15.4673C83.3503 14.7583 83.2156 13.979 83.2859 13.1294L83.3123 12.8833C83.4705 11.3188 84.0125 10.0825 84.9382 9.17432C85.8699 8.26025 87.0095 7.8208 88.3572 7.85596C89.1716 7.86768 89.8689 8.07568 90.449 8.47998C91.0291 8.87842 91.4539 9.43213 91.7234 10.1411C91.9929 10.8442 92.0808 11.6353 91.9871 12.5142L91.8201 13.7183H86.1599C86.1716 14.2163 86.3123 14.6206 86.5818 14.9312C86.8513 15.2417 87.2439 15.4058 87.7595 15.4233C88.5974 15.4468 89.3503 15.1245 90.0183 14.4565L91.2312 16.0649C90.8738 16.5747 90.3728 16.9761 89.7283 17.269C89.0896 17.5562 88.3894 17.7056 87.6277 17.7173H87.4695ZM88.1726 10.1323C87.7625 10.1206 87.405 10.2495 87.1003 10.519C86.8015 10.7886 86.5408 11.2397 86.3181 11.8726H89.2097L89.2625 11.6177C89.2976 11.4126 89.3035 11.2192 89.28 11.0376C89.1804 10.4517 88.8113 10.1499 88.1726 10.1323ZM99.2029 10.7124C98.8923 10.6655 98.5935 10.6362 98.3064 10.6245C97.4392 10.6011 96.7771 10.8999 96.3201 11.521L95.2478 17.5415H92.3562L94.0085 8.03174L96.7068 8.02295L96.4871 9.271C97.1082 8.31006 97.8406 7.82959 98.6843 7.82959C98.9246 7.82959 99.2234 7.87061 99.5808 7.95264L99.2029 10.7124ZM104.415 14.8169C104.491 14.4302 104.192 14.1401 103.518 13.9468L102.894 13.7886C101.875 13.519 101.128 13.1411 100.653 12.6548C100.178 12.1685 99.9558 11.5913 99.9851 10.9233C100.014 10.0093 100.419 9.26807 101.198 8.69971C101.983 8.12549 102.938 7.84424 104.063 7.85596C105.182 7.86768 106.088 8.15186 106.779 8.7085C107.476 9.26514 107.831 10.0151 107.843 10.9585L104.96 10.9497C104.983 10.1997 104.652 9.82471 103.967 9.82471C103.674 9.82471 103.401 9.9126 103.149 10.0884C102.897 10.2583 102.748 10.4868 102.701 10.7739C102.601 11.2485 103.02 11.5737 103.958 11.7495C104.772 11.9429 105.402 12.1685 105.847 12.4263C106.293 12.6782 106.633 12.9917 106.867 13.3667C107.101 13.7417 107.21 14.1929 107.192 14.7202C107.175 15.2944 106.987 15.8071 106.63 16.2583C106.272 16.7095 105.754 17.0698 105.074 17.3394C104.4 17.6089 103.668 17.7349 102.877 17.7173C102.191 17.7114 101.552 17.5679 100.961 17.2866C100.375 17.0054 99.9148 16.6245 99.5808 16.144C99.2527 15.6577 99.0828 15.1011 99.071 14.4741L101.76 14.4917C101.772 15.3354 102.194 15.7515 103.026 15.7397C103.384 15.7397 103.688 15.6606 103.94 15.5024C104.192 15.3384 104.35 15.1099 104.415 14.8169Z" fill="black"/>
<path d="M9.65601 14.0786C9.78491 13.4165 9.42749 12.9038 8.58374 12.5405L7.14233 11.9429C5.12085 11.0347 4.15991 9.79834 4.25952 8.23389C4.30054 7.51904 4.54663 6.8833 4.9978 6.32666C5.44897 5.76416 6.073 5.32764 6.86987 5.01709C7.66675 4.70654 8.53687 4.55713 9.48022 4.56885C10.7458 4.59229 11.7625 4.96143 12.53 5.67627C13.3035 6.39111 13.6843 7.34912 13.6726 8.55029H10.6843C10.7019 8.05811 10.5964 7.66553 10.3679 7.37256C10.1453 7.07373 9.77612 6.91846 9.2605 6.90674C8.75659 6.89502 8.31128 7.01221 7.92456 7.2583C7.53784 7.50439 7.30933 7.83545 7.23901 8.25146C7.12769 8.8374 7.56128 9.31787 8.53979 9.69287C9.52417 10.0679 10.239 10.3901 10.6843 10.6597C12.0847 11.4976 12.741 12.6284 12.6531 14.0522C12.6062 14.7905 12.3689 15.438 11.9412 15.9946C11.5134 16.5513 10.9187 16.9819 10.157 17.2866C9.40112 17.5913 8.55151 17.7378 7.60815 17.7261C6.91675 17.7144 6.27515 17.606 5.68335 17.4009C5.09155 17.1958 4.58472 16.897 4.16284 16.5044C3.30737 15.7134 2.89722 14.6733 2.93237 13.3843L5.94702 13.3931C5.91187 14.0493 6.03784 14.5474 6.32495 14.8872C6.61206 15.2212 7.09546 15.3882 7.77515 15.3882C8.27905 15.3882 8.698 15.2739 9.03198 15.0454C9.37183 14.811 9.57983 14.4888 9.65601 14.0786ZM18.9373 5.66748L18.5242 8.03174H20.0447L19.6843 10.0884H18.1638L17.4255 14.4565C17.3845 14.7554 17.4021 14.981 17.4783 15.1333C17.5603 15.2856 17.7595 15.3677 18.0759 15.3794C18.199 15.3853 18.4509 15.3706 18.8318 15.3354L18.6208 17.48C18.1345 17.6382 17.616 17.7114 17.0652 17.6997C16.1687 17.688 15.4978 17.4243 15.0525 16.9087C14.6072 16.3931 14.4255 15.6929 14.5076 14.8081L15.281 10.0884H14.1033L14.4548 8.03174H15.6326L16.0457 5.66748H18.9373ZM24.9578 17.5415C24.8757 17.313 24.8347 17.0259 24.8347 16.6802C24.1843 17.395 23.408 17.7407 22.5056 17.7173C21.6794 17.7056 20.9939 17.4302 20.449 16.8911C19.9041 16.3521 19.6492 15.6987 19.6843 14.9312C19.7136 13.8999 20.1443 13.1089 20.9763 12.5581C21.8083 12.0015 22.9451 11.7231 24.3865 11.7231L25.3533 11.7407L25.4587 11.2046L25.4939 10.7388C25.4705 10.2056 25.2039 9.93018 24.6941 9.9126C24.0613 9.90088 23.6716 10.2495 23.5251 10.9585L20.6248 10.9673C20.6541 10.3286 20.8621 9.7749 21.2488 9.30615C21.6355 8.83154 22.1599 8.46826 22.822 8.21631C23.49 7.9585 24.199 7.83838 24.949 7.85596C25.6697 7.87354 26.2996 8.02588 26.8386 8.31299C27.3835 8.59424 27.7908 8.98975 28.0603 9.49951C28.3298 10.0034 28.4324 10.5864 28.3679 11.2485L27.656 15.7222L27.6121 16.2671C27.5886 16.7007 27.6443 17.0698 27.7791 17.3745L27.7703 17.5415H24.9578ZM23.3054 15.6255C23.8972 15.6489 24.4158 15.3882 24.8611 14.8433L25.1511 13.314L24.4041 13.3052C23.9412 13.3169 23.5427 13.4546 23.2087 13.7183C22.8748 13.9761 22.6785 14.3306 22.6199 14.7817C22.5906 15.022 22.6345 15.2212 22.7517 15.3794C22.8748 15.5317 23.0593 15.6138 23.3054 15.6255ZM34.3708 5.66748L33.9578 8.03174H35.4783L35.1179 10.0884H33.5974L32.8591 14.4565C32.8181 14.7554 32.8357 14.981 32.9119 15.1333C32.9939 15.2856 33.1931 15.3677 33.5095 15.3794C33.6326 15.3853 33.8845 15.3706 34.2654 15.3354L34.0544 17.48C33.5681 17.6382 33.0496 17.7114 32.4988 17.6997C31.6023 17.688 30.9314 17.4243 30.4861 16.9087C30.0408 16.3931 29.8591 15.6929 29.9412 14.8081L30.7146 10.0884H29.5369L29.8884 8.03174H31.0662L31.4792 5.66748H34.3708ZM40.3914 14.8169C40.4675 14.4302 40.1687 14.1401 39.4949 13.9468L38.8708 13.7886C37.8513 13.519 37.1042 13.1411 36.6296 12.6548C36.155 12.1685 35.9324 11.5913 35.9617 10.9233C35.991 10.0093 36.3953 9.26807 37.1746 8.69971C37.9597 8.12549 38.9148 7.84424 40.0398 7.85596C41.1589 7.86768 42.0642 8.15186 42.7556 8.7085C43.4529 9.26514 43.8074 10.0151 43.8191 10.9585L40.9363 10.9497C40.9597 10.1997 40.6287 9.82471 39.9431 9.82471C39.6501 9.82471 39.3777 9.9126 39.1257 10.0884C38.8738 10.2583 38.7244 10.4868 38.6775 10.7739C38.5779 11.2485 38.9968 11.5737 39.9343 11.7495C40.7488 11.9429 41.3787 12.1685 41.824 12.4263C42.2693 12.6782 42.6091 12.9917 42.8435 13.3667C43.0779 13.7417 43.1863 14.1929 43.1687 14.7202C43.1511 15.2944 42.9636 15.8071 42.6062 16.2583C42.2488 16.7095 41.7302 17.0698 41.0505 17.3394C40.3767 17.6089 39.6443 17.7349 38.8533 17.7173C38.1677 17.7114 37.5291 17.5679 36.9373 17.2866C36.3513 17.0054 35.8914 16.6245 35.5574 16.144C35.2292 15.6577 35.0593 15.1011 35.0476 14.4741L37.7371 14.4917C37.7488 15.3354 38.1707 15.7515 39.0027 15.7397C39.3601 15.7397 39.6648 15.6606 39.9167 15.5024C40.1687 15.3384 40.3269 15.1099 40.3914 14.8169ZM52.4939 12.5405H53.7507L53.3552 14.8257H52.0984L51.6238 17.5415H48.7322L49.2068 14.8257H44.4167L44.575 12.8745L50.8591 4.771V4.70947L53.8474 4.75342L52.4939 12.5405ZM47.4226 12.5229L49.6023 12.5405L50.3757 8.56787L47.4226 12.5229ZM54.3923 17.5415L56.6072 4.74463L60.6765 4.75342C62.282 4.75928 63.4802 5.06396 64.2712 5.66748C65.0623 6.271 65.4226 7.11768 65.3523 8.20752C65.2644 9.55518 64.5261 10.5103 63.1375 11.0728C63.6355 11.2485 64.0222 11.5679 64.2976 12.0308C64.5789 12.4878 64.699 13.0386 64.658 13.6831C64.5759 14.9194 64.0867 15.8716 63.1902 16.5396C62.2996 17.2075 61.0779 17.5415 59.5251 17.5415H54.3923ZM58.3474 12.1011L57.8113 15.1685L59.613 15.1772C60.1755 15.1772 60.6443 15.0396 61.0193 14.7642C61.3943 14.4829 61.6169 14.1108 61.6873 13.6479C61.8513 12.6694 61.4763 12.1567 60.5623 12.1099L58.3474 12.1011ZM58.6902 10.0796L60.1052 10.0884C61.4119 10.0591 62.1443 9.55811 62.3025 8.58545C62.4431 7.62451 61.9451 7.14111 60.8083 7.13525L59.2087 7.12646L58.6902 10.0796ZM70.9773 17.5415C70.8953 17.313 70.8542 17.0259 70.8542 16.6802C70.2039 17.395 69.4275 17.7407 68.5251 17.7173C67.699 17.7056 67.0134 17.4302 66.4685 16.8911C65.9236 16.3521 65.6687 15.6987 65.7039 14.9312C65.7332 13.8999 66.1638 13.1089 66.9958 12.5581C67.8279 12.0015 68.9646 11.7231 70.406 11.7231L71.3728 11.7407L71.4783 11.2046L71.5134 10.7388C71.49 10.2056 71.2234 9.93018 70.7136 9.9126C70.0808 9.90088 69.6912 10.2495 69.5447 10.9585L66.6443 10.9673C66.6736 10.3286 66.8816 9.7749 67.2683 9.30615C67.655 8.83154 68.1794 8.46826 68.8416 8.21631C69.5095 7.9585 70.2185 7.83838 70.9685 7.85596C71.6892 7.87354 72.3191 8.02588 72.8582 8.31299C73.4031 8.59424 73.8103 8.98975 74.0798 9.49951C74.3494 10.0034 74.4519 10.5864 74.3875 11.2485L73.6755 15.7222L73.6316 16.2671C73.6082 16.7007 73.6638 17.0698 73.7986 17.3745L73.7898 17.5415H70.9773ZM69.325 15.6255C69.9167 15.6489 70.4353 15.3882 70.8806 14.8433L71.1707 13.314L70.4236 13.3052C69.9607 13.3169 69.5623 13.4546 69.2283 13.7183C68.8943 13.9761 68.698 14.3306 68.6394 14.7817C68.6101 15.022 68.6541 15.2212 68.7712 15.3794C68.8943 15.5317 69.0789 15.6138 69.325 15.6255ZM78.0173 17.5415H75.1169L77.4548 4.0415H80.3552L78.0173 17.5415ZM82.9041 17.5415H80.0037L82.3416 4.0415H85.2419L82.9041 17.5415ZM89.4695 17.7173C88.6199 17.7114 87.8611 17.5122 87.1931 17.1196C86.531 16.7212 86.03 16.1704 85.6902 15.4673C85.3503 14.7583 85.2156 13.979 85.2859 13.1294L85.3123 12.8833C85.4705 11.3188 86.0125 10.0825 86.9382 9.17432C87.8699 8.26025 89.0095 7.8208 90.3572 7.85596C91.1716 7.86768 91.8689 8.07568 92.449 8.47998C93.0291 8.87842 93.4539 9.43213 93.7234 10.1411C93.9929 10.8442 94.0808 11.6353 93.9871 12.5142L93.8201 13.7183H88.1599C88.1716 14.2163 88.3123 14.6206 88.5818 14.9312C88.8513 15.2417 89.2439 15.4058 89.7595 15.4233C90.5974 15.4468 91.3503 15.1245 92.0183 14.4565L93.2312 16.0649C92.8738 16.5747 92.3728 16.9761 91.7283 17.269C91.0896 17.5562 90.3894 17.7056 89.6277 17.7173H89.4695ZM90.1726 10.1323C89.7625 10.1206 89.405 10.2495 89.1003 10.519C88.8015 10.7886 88.5408 11.2397 88.3181 11.8726H91.2097L91.2625 11.6177C91.2976 11.4126 91.3035 11.2192 91.28 11.0376C91.1804 10.4517 90.8113 10.1499 90.1726 10.1323ZM101.203 10.7124C100.892 10.6655 100.594 10.6362 100.306 10.6245C99.4392 10.6011 98.7771 10.8999 98.3201 11.521L97.2478 17.5415H94.3562L96.0085 8.03174L98.7068 8.02295L98.4871 9.271C99.1082 8.31006 99.8406 7.82959 100.684 7.82959C100.925 7.82959 101.223 7.87061 101.581 7.95264L101.203 10.7124ZM106.415 14.8169C106.491 14.4302 106.192 14.1401 105.518 13.9468L104.894 13.7886C103.875 13.519 103.128 13.1411 102.653 12.6548C102.178 12.1685 101.956 11.5913 101.985 10.9233C102.014 10.0093 102.419 9.26807 103.198 8.69971C103.983 8.12549 104.938 7.84424 106.063 7.85596C107.182 7.86768 108.088 8.15186 108.779 8.7085C109.476 9.26514 109.831 10.0151 109.843 10.9585L106.96 10.9497C106.983 10.1997 106.652 9.82471 105.967 9.82471C105.674 9.82471 105.401 9.9126 105.149 10.0884C104.897 10.2583 104.748 10.4868 104.701 10.7739C104.601 11.2485 105.02 11.5737 105.958 11.7495C106.772 11.9429 107.402 12.1685 107.847 12.4263C108.293 12.6782 108.633 12.9917 108.867 13.3667C109.101 13.7417 109.21 14.1929 109.192 14.7202C109.175 15.2944 108.987 15.8071 108.63 16.2583C108.272 16.7095 107.754 17.0698 107.074 17.3394C106.4 17.6089 105.668 17.7349 104.877 17.7173C104.191 17.7114 103.552 17.5679 102.961 17.2866C102.375 17.0054 101.915 16.6245 101.581 16.144C101.253 15.6577 101.083 15.1011 101.071 14.4741L103.76 14.4917C103.772 15.3354 104.194 15.7515 105.026 15.7397C105.384 15.7397 105.688 15.6606 105.94 15.5024C106.192 15.3384 106.35 15.1099 106.415 14.8169Z" fill="#DC904D"/>
<circle cx="115.489" cy="13.6108" r="3.06934" fill="black"/>
<circle cx="117.073" cy="13.6108" r="3.06934" fill="#DC904D"/>
</svg>
